<?xml version="1.0" encoding="UTF-8"?>
<svg width="20px" height="21px" viewBox="0 0 20 21" version="1.1" xmlns="http://www.w3.org/2000/svg" xmlns:xlink="http://www.w3.org/1999/xlink">
    <title>icon_微信</title>
    <g id="家长端V5.3.0" stroke="none" stroke-width="1" fill="none" fill-rule="evenodd">
        <g id="扫码访问-老用户已领取" transform="translate(-25.000000, -3449.000000)">
            <g id="编组-" transform="translate(0.000000, 558.000000)">
                <g id="编组-13" transform="translate(15.000000, 2501.000000)">
                    <g id="icon_微信" transform="translate(10.000000, 390.381836)">
                        <ellipse id="椭圆形" fill="#FFFFFF" cx="10" cy="9.90234375" rx="10" ry="9.90234375"></ellipse>
                        <path d="M11.3226866,9.89441718 C11.0697216,9.90734088 10.8702466,10.1123333 10.8666624,10.3631217 C10.8914794,10.5961155 11.0862333,10.7751137 11.3226866,10.7823833 C11.599035,10.8169934 11.8552875,10.6337852 11.9090741,10.3631217 C11.8954544,10.2234331 11.8256505,10.0949304 11.7152842,10.0067653 C11.6050168,9.91860017 11.4634809,9.87806674 11.3226866,9.89441718 Z M9.82368228,7.71638155 C9.97999953,7.72898705 10.1340922,7.67411027 10.2464854,7.56587425 C10.3588785,7.45763824 10.418548,7.30659245 10.4101439,7.15160592 C10.4211682,6.99583613 10.3623638,6.84324832 10.2492785,6.73435143 C10.1363168,6.62552798 9.98056805,6.57160578 9.82368228,6.58700163 C9.65905974,6.5718016 9.49520347,6.62325164 9.36938834,6.729554 C9.24357322,6.83588083 9.16662578,6.98810149 9.155997,7.15160592 C9.18390373,7.48958034 9.48215231,7.74181285 9.82368228,7.71638155 Z M10.0035559,-9.14858467e-14 C5.95866153,-0.00134565579 2.31130835,2.41036914 0.762472302,6.11039112 C-0.786363748,9.81046206 0.0682397887,14.0700951 2.92790132,16.9028827 C5.78748869,19.735597 10.0888086,20.5834702 13.8259873,19.0511057 C17.5630425,17.5187168 20,13.907839 20,9.90244554 C20.0004942,7.27665744 18.9475526,4.75822419 17.072932,2.90115166 C15.1982126,1.04407914 12.6552393,0.00046562081 10.0035559,-9.14858467e-14 Z M8.11435161,12.4112105 C7.56669742,12.4068292 7.02289926,12.3197165 6.5017923,12.1528833 L4.85687701,12.9758148 L5.33020387,11.5883769 C4.1731744,10.781135 3.48937293,9.7655473 3.48937293,8.52315841 C3.48937293,6.32894367 5.5742951,4.65113858 8.11484597,4.65113858 C10.3625368,4.65113858 12.3658645,5.97403137 12.756633,7.84583887 C12.6119827,7.8154388 12.4647369,7.79918626 12.3169227,7.79735051 C10.1019586,7.79735051 8.39176283,9.44284634 8.39176283,11.427467 C8.39435823,11.7543535 8.43850476,12.079649 8.52326312,12.3956433 C8.38790681,12.4090321 8.25195727,12.414368 8.11590885,12.4117979 L8.11435161,12.4112105 Z M14.9062424,13.9921612 L15.2317303,15.1538504 L13.9939963,14.4600825 C13.5365137,14.5874593 13.0672406,14.6685262 12.5933452,14.7020838 C10.4106382,14.7020838 8.68452399,13.2177181 8.68452399,11.3787094 C8.68452399,9.53970069 10.4109349,8.05513922 12.5933452,8.05513922 C14.6618546,8.05513922 16.5185051,9.53950487 16.5185051,11.3787094 C16.5185051,12.4112105 15.8181919,13.3317796 14.9062424,13.9921612 Z M6.59960182,6.58700163 C6.24949467,6.55373778 5.93742868,6.80528494 5.89928865,7.15160592 C5.94313856,7.49464702 6.25142268,7.7432325 6.59960182,7.71638155 C6.75438655,7.72345532 6.90529054,7.66674278 7.01642311,7.55975507 C7.12748153,7.45276737 7.18888129,7.30495252 7.18608814,7.15160592 C7.19140253,6.99737817 7.13074432,6.84821709 7.01904323,6.74066642 C6.9074163,6.63318919 6.75505394,6.57735781 6.59960182,6.58700163 Z M13.8800458,9.89412346 C13.6245596,9.90139304 13.421797,10.1097388 13.4241205,10.3629259 C13.4438208,10.5983184 13.6414667,10.7800825 13.8800458,10.7821875 C14.1514753,10.8111434 14.3997933,10.6285227 14.4502182,10.3629259 C14.4380322,10.2256116 14.3709473,10.0988467 14.2638437,10.0107795 C14.1567649,9.92271226 14.0186155,9.88075918 13.8800458,9.89412346 Z" id="Fill-1" fill="#7DC11B"></path>
                    </g>
                </g>
            </g>
        </g>
    </g>
</svg>