<?xml version="1.0" encoding="UTF-8"?>
<svg width="16px" height="19px" viewBox="0 0 16 19" version="1.1" xmlns="http://www.w3.org/2000/svg" xmlns:xlink="http://www.w3.org/1999/xlink">
    <!-- Generator: Sketch 62 (91390) - https://sketch.com -->
    <title>icon_安卓</title>
    <desc>Created with Sketch.</desc>
    <defs>
        <polygon id="path-1" points="0 0 20 0 20 20 0 20"></polygon>
    </defs>
    <g id="icon" stroke="none" stroke-width="1" fill="none" fill-rule="evenodd">
        <g id="移动端icon" transform="translate(-100.000000, -128.000000)">
            <g id="icon_安卓" transform="translate(98.000000, 128.000000)">
                <mask id="mask-2" fill="white">
                    <use xlink:href="#path-1"></use>
                </mask>
                <g id="Clip-2"></g>
                <path d="M5.28271641,14.2322573 C5.28271641,14.850917 5.74721898,15.3531664 6.31790824,15.3531664 L7.06552323,15.3531664 C7.03971877,15.4491742 7.02663796,15.5481285 7.02672725,15.6476185 L7.02672725,17.8892581 C7.02672725,18.4759077 7.46611735,18.9507901 8.00716274,18.9507901 C8.54925726,18.9507901 8.98873666,18.4747916 8.98873666,17.8892581 L8.98873666,15.6476185 C8.98873666,15.5449141 8.97391472,15.4467187 8.94991836,15.3531664 L10.7715435,15.3531664 C10.745739,15.4491742 10.7326582,15.5481285 10.7327475,15.6476185 L10.7327475,17.8892581 C10.7327475,18.4759077 11.1721153,18.9507901 11.713183,18.9507901 C12.2553668,18.9507901 12.6947346,18.4747916 12.6947346,17.8892581 L12.6947346,15.6476185 C12.6948239,15.5481285 12.6817431,15.4491742 12.6559386,15.3531664 L13.4035536,15.3531664 C13.9742428,15.3531664 14.4387454,14.8497786 14.4387454,14.2322573 L14.4387454,6.44703439 L5.28271641,6.44703439 L5.28271641,14.2322573 Z M3.64710215,6.44703439 C3.10491834,6.44703439 2.66666667,6.92182749 2.66666667,7.50847712 L2.66666667,12.0499948 C2.66666667,12.6366668 3.10614606,13.1114376 3.64710215,13.1114376 C4.18805825,13.1114376 4.62753985,12.6355284 4.62753985,12.0499948 L4.62753985,7.50847712 C4.62867607,6.92182749 4.18928597,6.44703439 3.64710215,6.44703439 Z M12.1103395,2.19771421 L12.2941628,1.89864143 L12.4756199,1.60416703 L12.8830893,0.942179986 C12.9331356,0.860837905 12.9134251,0.754718185 12.8373957,0.696814409 C12.801457,0.670920662 12.7562099,0.661411407 12.7129718,0.670831373 C12.6696221,0.680162051 12.6322994,0.707439775 12.6102451,0.745900918 L12.1731318,1.45585836 L11.9905363,1.75372574 L11.8044584,2.05619149 C11.1885221,1.79870496 10.527227,1.66713794 9.85954784,1.66921391 C9.16452395,1.66921391 8.50592988,1.80734365 7.91465956,2.05619149 L7.54484774,1.45471993 L7.1077345,0.744762486 C7.0854123,0.706569209 7.04817888,0.67953703 7.00494079,0.670206352 C6.96176966,0.660897996 6.91661186,0.670139385 6.88058383,0.695675977 C6.80509017,0.753914586 6.78546896,0.859610184 6.8348903,0.941041554 L7.24235966,1.60305092 L7.42504451,1.89864143 L7.60875619,2.19771421 C6.22087366,2.89624269 5.28262712,4.22249363 5.28262712,5.73935381 L14.437607,5.73935381 C14.437607,4.22249363 13.4982443,2.89624269 12.1103395,2.19771421 Z M7.89756076,4.32294352 C7.62585499,4.32294352 7.40674031,4.08550232 7.40674031,3.79218867 C7.40674031,3.49894198 7.62585499,3.26150078 7.89756076,3.26150078 C8.1680388,3.26150078 8.38829191,3.49885269 8.38829191,3.79218867 C8.38829191,4.08559161 8.16917724,4.32294352 7.89756076,4.32294352 Z M11.8215572,4.32294352 C11.5510792,4.32294352 11.3319422,4.08550232 11.3319422,3.79218867 C11.3319422,3.49894198 11.5510792,3.26150078 11.8215572,3.26150078 C12.093263,3.26150078 12.3123777,3.49885269 12.3123777,3.79218867 C12.3123777,4.08559161 12.0920353,4.32294352 11.8215572,4.32294352 Z M16.0720158,6.44703439 C15.5299213,6.44703439 15.0915804,6.92182749 15.0915804,7.50847712 L15.0915804,12.0499948 C15.0915804,12.6366668 15.5310598,13.1114376 16.0720158,13.1114376 C16.6130612,13.1114376 17.0524513,12.6355284 17.0524513,12.0499948 L17.0524513,7.50847712 C17.0524513,6.92182749 16.6141997,6.44703439 16.0720158,6.44703439 Z" id="Fill-1" fill="#FFFFFF" mask="url(#mask-2)"></path>
            </g>
        </g>
    </g>
</svg>