<?xml version="1.0" encoding="UTF-8"?>
<svg width="16px" height="18px" viewBox="0 0 16 18" version="1.1" xmlns="http://www.w3.org/2000/svg" xmlns:xlink="http://www.w3.org/1999/xlink">
    <!-- Generator: Sketch 62 (91390) - https://sketch.com -->
    <title>icon_苹果</title>
    <desc>Created with Sketch.</desc>
    <defs>
        <polygon id="path-1" points="0 0 20 0 20 20 0 20"></polygon>
    </defs>
    <g id="icon" stroke="none" stroke-width="1" fill="none" fill-rule="evenodd">
        <g id="移动端icon" transform="translate(-60.000000, -129.000000)">
            <g id="icon_苹果" transform="translate(58.000000, 128.000000)">
                <mask id="mask-2" fill="white">
                    <use xlink:href="#path-1"></use>
                </mask>
                <g id="Clip-2"></g>
                <path d="M14.6984578,10.3011821 C14.7229843,12.8530953 17.0457829,13.7023747 17.0728347,13.7142004 C17.0516333,13.7726042 16.7006359,14.9246279 15.8471813,16.114729 C15.1096341,17.1433198 14.3457102,18.1659352 13.1404581,18.1871366 C11.9545322,18.208338 11.5747329,17.5171687 10.2196712,17.5171687 C8.86538458,17.5171687 8.44160746,18.1659352 7.32083576,18.208338 C6.15866141,18.2505157 5.27217969,17.0984919 4.52868212,16.0741014 C3.00785983,13.9780673 1.84733558,10.1522475 3.40711037,7.56985733 C4.18108489,6.28667524 5.56574847,5.47547334 7.06711953,5.45349693 C8.20986764,5.43407069 9.28923669,6.18861896 9.98615628,6.18861896 C10.685701,6.18861896 11.9959349,5.28181095 13.373873,5.41464444 C13.9498849,5.43749591 15.5697135,5.63623362 16.60923,7.08602638 C16.5263997,7.13760468 14.6764814,8.16287027 14.6984578,10.3011821 Z M9.84659735,5.22263216 C9.7129888,4.25234508 10.2136958,3.24408058 10.7855074,2.61056505 C11.4241233,1.89751943 12.5017422,1.3672105 13.3916492,1.33333333 C13.5058065,2.32127154 13.0880047,3.31353502 12.4713653,4.02823075 C11.8529757,4.74047631 10.8396109,5.29616186 9.84659735,5.22263216 Z" id="Fill-1" fill="#FFFFFF" mask="url(#mask-2)"></path>
            </g>
        </g>
    </g>
</svg>