<?xml version="1.0" encoding="UTF-8"?>
<svg width="20px" height="20px" viewBox="0 0 20 20" version="1.1" xmlns="http://www.w3.org/2000/svg" xmlns:xlink="http://www.w3.org/1999/xlink">
    <!-- Generator: Sketch 62 (91390) - https://sketch.com -->
    <title>icon_地址</title>
    <desc>Created with Sketch.</desc>
    <g id="icon" stroke="none" stroke-width="1" fill="none" fill-rule="evenodd">
        <g id="移动端icon" transform="translate(-218.000000, -128.000000)">
            <g id="icon_地址" transform="translate(218.000000, 128.000000)">
                <circle id="椭圆形" fill="#FACD33" cx="10" cy="10" r="10"></circle>
                <path d="M10.1428797,4 C7.58294988,4 5.5,6.08294988 5.5,8.64287972 C5.5,11.1141074 9.66042595,15.5020098 9.83726961,15.687295 C9.91700259,15.7712817 10.0275835,15.8181718 10.1428797,15.8181718 L10.1521456,15.8181718 C10.2707064,15.8181718 10.3825898,15.7628402 10.460641,15.6737753 L11.901226,14.0234873 C13.8153121,11.6788662 14.785677,9.8685352 14.785677,8.64287972 C14.785677,6.08294988 12.7027271,4 10.1428797,4 Z M10.1428797,10.7532646 C8.97710641,10.7532646 8.03249483,9.80865303 8.03249483,8.64287972 C8.03249483,7.47710641 8.97710641,6.53249483 10.1428797,6.53249483 C11.308653,6.53249483 12.2532646,7.47710641 12.2532646,8.64287972 C12.2532646,9.80865303 11.308653,10.7532646 10.1428797,10.7532646 Z" id="Fill-1" fill="#FFFFFF"></path>
            </g>
        </g>
    </g>
</svg>